<svg width="203" height="148" viewBox="0 0 203 148" fill="none" xmlns="http://www.w3.org/2000/svg">
<path fill-rule="evenodd" clip-rule="evenodd" d="M135.535 3.42088L199.175 67.0605C203.08 70.9657 203.08 77.2974 199.175 81.2026L135.535 144.842C131.63 148.747 125.298 148.747 121.393 144.842C117.488 140.937 117.488 134.605 121.393 130.7L154.305 97.7884C159.344 92.7487 155.775 84.1315 148.648 84.1315H10.9683C5.44541 84.1315 0.968262 79.6544 0.968262 74.1315C0.968262 68.6087 5.44541 64.1315 10.9683 64.1315H148.648C155.775 64.1315 159.344 55.5144 154.305 50.4747L121.393 17.563C117.488 13.6578 117.488 7.32612 121.393 3.42088C125.298 -0.484367 131.63 -0.484367 135.535 3.42088Z" fill="#FF4000"/>
</svg>
