<svg width="202" height="148" viewBox="0 0 202 148" fill="none" xmlns="http://www.w3.org/2000/svg">
<path fill-rule="evenodd" clip-rule="evenodd" d="M135.186 3.43162L198.826 67.0712C202.731 70.9765 202.731 77.3081 198.826 81.2134L135.186 144.853C131.281 148.758 124.949 148.758 121.044 144.853C117.139 140.948 117.139 134.616 121.044 130.711L153.956 97.7991C158.995 92.7594 155.426 84.1423 148.299 84.1423L10.6194 84.1423C5.09654 84.1423 0.619385 79.6651 0.619385 74.1423C0.619385 68.6194 5.09654 64.1423 10.6194 64.1423L148.299 64.1423C155.426 64.1423 158.995 55.5252 153.956 50.4854L121.044 17.5738C117.139 13.6685 117.139 7.33686 121.044 3.43162C124.949 -0.473625 131.281 -0.473625 135.186 3.43162Z" fill="#506583"/>
</svg>
