<svg width="202" height="149" viewBox="0 0 202 149" fill="none" xmlns="http://www.w3.org/2000/svg">
<path fill-rule="evenodd" clip-rule="evenodd" d="M135.023 3.69285L198.662 67.3325C202.567 71.2377 202.567 77.5693 198.662 81.4746L135.023 145.114C131.117 149.019 124.786 149.019 120.88 145.114C116.975 141.209 116.975 134.877 120.88 130.972L153.792 98.0604C158.832 93.0207 155.263 84.4035 148.135 84.4035L10.4558 84.4035C4.93296 84.4035 0.455811 79.9264 0.455811 74.4035C0.455811 68.8807 4.93296 64.4035 10.4558 64.4035L148.135 64.4035C155.263 64.4035 158.832 55.7864 153.792 50.7467L120.88 17.835C116.975 13.9297 116.975 7.59809 120.88 3.69285C124.786 -0.212395 131.117 -0.212395 135.023 3.69285Z" fill="#D3D3D3"/>
</svg>
