<svg width="381" height="106" viewBox="0 0 381 106" fill="none" xmlns="http://www.w3.org/2000/svg">
<path fill-rule="evenodd" clip-rule="evenodd" d="M282.69 77.6738C273.839 93.9673 256.577 105.028 236.731 105.028C216.884 105.028 199.622 93.9674 190.771 77.6739C181.92 93.9674 164.657 105.028 144.811 105.028C124.965 105.028 107.702 93.9674 98.8511 77.6738C90.0002 93.9674 72.7374 105.028 52.8912 105.028C24.0244 105.028 0.623169 81.6272 0.623169 52.7604C0.623169 23.8935 24.0244 0.492311 52.8912 0.492311C72.7374 0.492311 90.0001 11.5533 98.8511 27.8468C107.702 11.5532 124.965 0.492205 144.811 0.492205C164.657 0.492205 181.92 11.5531 190.771 27.8466C199.622 11.5531 216.884 0.492188 236.731 0.492188C256.577 0.492188 273.839 11.5532 282.69 27.8467C291.541 11.5532 308.804 0.492191 328.65 0.492191C357.517 0.492191 380.918 23.8934 380.918 52.7602C380.918 81.6271 357.517 105.028 328.65 105.028C308.804 105.028 291.541 93.9673 282.69 77.6738Z" fill="#FF4000"/>
</svg>
