<svg width="634" height="175" viewBox="0 0 634 175" fill="none" xmlns="http://www.w3.org/2000/svg">
<path fill-rule="evenodd" clip-rule="evenodd" d="M240.753 174.127C273.787 174.127 302.521 155.717 317.253 128.596C331.986 155.717 360.719 174.127 393.753 174.127C426.787 174.127 455.521 155.717 470.253 128.596C484.986 155.717 513.719 174.127 546.753 174.127C594.802 174.127 633.753 135.176 633.753 87.1274C633.753 39.0787 594.802 0.127441 546.753 0.127441C513.719 0.127441 484.986 18.5383 470.253 45.6589C455.521 18.5383 426.787 0.127441 393.753 0.127441C360.719 0.127441 331.986 18.5383 317.253 45.6589C302.521 18.5383 273.787 0.127441 240.753 0.127441C207.719 0.127441 178.986 18.5383 164.253 45.6589C149.521 18.5384 120.787 0.127472 87.7532 0.127472C39.7044 0.127472 0.753174 39.0787 0.753174 87.1275C0.753174 135.176 39.7044 174.127 87.7532 174.127C120.787 174.127 149.521 155.717 164.253 128.596C178.986 155.717 207.719 174.127 240.753 174.127Z" fill="#506582"/>
</svg>
