<svg width="180" height="124" viewBox="0 0 180 124" fill="none" xmlns="http://www.w3.org/2000/svg">
<path d="M149.993 53.7452C155.875 54.4954 161.879 56.57 165.803 61.0144C169.729 65.4588 170.881 72.6778 167.218 77.3419C163.681 81.8459 157.209 82.6243 151.484 82.4203C141.217 82.0562 131.029 79.6802 121.66 75.4681C129.331 79.2502 135.317 86.8145 136.101 95.3329C136.886 103.851 131.801 112.881 123.71 115.656C122.297 116.139 120.728 116.434 119.325 115.926C118.026 115.455 117.059 114.366 116.208 113.28C110.891 106.488 107.825 97.9662 107.593 89.3442C108.779 99.5293 105.43 110.157 98.6159 117.818C95.2104 121.648 90.0567 124.924 85.198 123.292C80.4334 121.692 78.2614 116.105 77.9444 111.086C77.4517 103.296 80.0442 95.3548 85.0379 89.3568C79.0775 102.486 65.4587 110.144 52.5053 116.478C48.4533 118.459 43.7201 120.424 39.5959 118.594C35.2896 116.682 33.5727 111.171 34.4955 106.551C35.4183 101.93 38.3404 98.0007 41.1841 94.2406C36.0617 98.4998 30.3587 102.709 23.7204 103.299C17.0821 103.889 9.57116 99.2845 9.48642 92.621C9.41109 86.6952 14.7437 82.3073 19.5648 78.8642C11.1311 78.5095 3.31262 72.1003 1.31327 63.8989C0.62276 61.0709 0.60078 57.9668 1.93159 55.3773C4.21341 50.9329 9.77519 49.2161 14.772 49.2349C19.7688 49.2506 24.7311 50.5437 29.7153 50.1702C20.7794 47.2889 13.278 40.252 9.83169 31.517C8.29059 27.6125 7.5373 23.2748 8.51029 19.1914C9.48329 15.1079 12.4086 11.354 16.4229 10.1268C19.9508 9.0471 23.7832 9.98871 27.2012 11.3823C34.7686 14.4708 41.3881 19.8285 45.9831 26.5861C46.4634 20.836 47.0346 14.8192 50.1953 9.99185C53.3559 5.16455 59.9942 2.08864 65.0758 4.82244C71.3155 8.18084 71.1931 17.0257 70.2138 24.0438C73.8327 14.9918 80.628 7.24237 89.1307 2.47156C92.5676 0.544405 97.2286 -0.773849 100.157 1.85951C102.043 3.55754 102.476 6.31959 102.567 8.85565C102.903 18.3314 99.9373 27.8887 94.297 35.5094C96.174 28.9213 98.5939 22.3677 102.712 16.8938C106.83 11.42 112.856 7.09798 119.658 6.2882C121.836 6.02769 124.278 6.21914 125.847 7.75082C127.489 9.35155 127.68 11.897 127.658 14.1914C127.57 23.1838 125.8 32.1573 122.464 40.5094C122.382 30.7198 130.643 22.7977 139.378 18.3753C143.703 16.1845 148.618 14.4927 153.348 15.5599C158.078 16.627 162.221 21.3759 161.076 26.0871C160.577 28.1335 159.215 29.8441 157.834 31.4354C153.389 36.564 148.399 41.2156 142.969 45.2833C147.168 41.3756 152.134 38.2872 157.495 36.247C162.011 34.5301 167.058 33.5603 171.66 35.0355C176.261 36.5107 180.128 41.0084 179.594 45.8106C179.117 50.0729 175.385 53.4 171.305 54.7245C167.225 56.049 162.821 55.7697 158.54 55.4778C155.822 55.2926 153.104 55.1074 150.385 54.9191" fill="#FF4000"/>
</svg>
