<svg width="278" height="192" viewBox="0 0 278 192" fill="none" xmlns="http://www.w3.org/2000/svg">
<path d="M231.604 83.4969C240.707 84.6579 250 87.8687 256.072 94.747C262.149 101.625 263.931 112.798 258.262 120.016C252.788 126.986 242.772 128.191 233.912 127.875C218.023 127.312 202.255 123.635 187.755 117.116C199.627 122.969 208.89 134.676 210.105 147.859C211.319 161.043 203.45 175.018 190.927 179.312C188.741 180.06 186.313 180.516 184.141 179.73C182.13 179.001 180.634 177.315 179.318 175.635C171.089 165.123 166.343 151.935 165.984 138.591C167.82 154.354 162.637 170.801 152.091 182.659C146.821 188.585 138.845 193.656 131.325 191.13C123.952 188.653 120.59 180.006 120.1 172.239C119.337 160.183 123.349 147.893 131.078 138.611C121.853 158.93 100.776 170.782 80.7292 180.584C74.4582 183.65 67.133 186.69 60.7502 183.858C54.0856 180.9 51.4286 172.37 52.8567 165.22C54.2848 158.07 58.8072 151.988 63.2081 146.169C55.2806 152.761 46.4545 159.274 36.1808 160.188C25.9071 161.101 14.283 153.975 14.1518 143.662C14.0353 134.491 22.2882 127.7 29.7494 122.372C16.6972 121.823 4.59708 111.904 1.50283 99.211C0.434171 94.8344 0.400154 90.0303 2.45975 86.0228C5.99118 79.1446 14.5988 76.4875 22.3319 76.5166C30.0651 76.5409 37.7449 78.5422 45.4587 77.9642C31.6293 73.505 20.0198 62.6144 14.6862 49.0959C12.3011 43.0531 11.1353 36.34 12.6412 30.0203C14.147 23.7007 18.6742 17.891 24.887 15.9917C30.3469 14.3208 36.2779 15.778 41.5678 17.9348C53.2793 22.7146 63.5239 31.0064 70.6353 41.4647C71.3785 32.5657 72.2626 23.2538 77.1541 15.7829C82.0456 8.31198 92.3193 3.55161 100.184 7.78253C109.84 12.9801 109.651 26.6686 108.135 37.5301C113.736 23.5209 124.253 11.5277 137.412 4.14424C142.731 1.16171 149.944 -0.878458 154.476 3.19701C157.396 5.82494 158.066 10.0996 158.207 14.0244C158.727 28.6893 154.136 43.4805 145.407 55.2746C148.312 45.0787 152.057 34.9361 158.43 26.4646C164.803 17.993 174.13 11.3042 184.656 10.051C188.027 9.64781 191.807 9.94411 194.235 12.3146C196.776 14.7919 197.072 18.7314 197.038 22.2823C196.902 36.1991 194.162 50.0868 188.999 63.0127C188.873 47.8621 201.658 35.6016 215.176 28.7574C221.87 25.3668 229.477 22.7486 236.797 24.4001C244.117 26.0517 250.529 33.4012 248.756 40.6923C247.984 43.8594 245.876 46.5068 243.738 48.9696C236.86 56.9068 229.137 64.1056 220.733 70.401C227.233 64.3534 234.917 59.5736 243.214 56.4162C250.204 53.7591 258.015 52.2581 265.136 54.5412C272.257 56.8242 278.242 63.785 277.416 71.2171C276.677 77.8136 270.902 82.9626 264.587 85.0125C258.272 87.0624 251.457 86.63 244.831 86.1783C240.625 85.8917 236.418 85.6051 232.212 85.3136" fill="#D3D3D3"/>
</svg>
