<svg width="579" height="399" viewBox="0 0 579 399" fill="none" xmlns="http://www.w3.org/2000/svg">
<path d="M482.483 226.454C501.477 224.032 520.866 217.332 533.535 202.98C546.215 188.628 549.934 165.317 538.106 150.256C526.684 135.711 505.784 133.198 487.297 133.857C454.144 135.032 421.244 142.705 390.99 156.307C415.761 144.093 435.089 119.667 437.623 92.1592C440.157 64.6516 423.738 35.4919 397.608 26.5322C393.047 24.9713 387.98 24.0186 383.449 25.6606C379.253 27.1809 376.131 30.6979 373.385 34.2047C356.215 56.1379 346.313 83.6556 345.563 111.498C349.394 78.6082 338.58 44.2895 316.576 19.5489C305.579 7.18363 288.936 -3.39778 273.246 1.87265C257.861 7.04173 250.847 25.0828 249.823 41.2894C248.232 66.4456 256.604 92.0883 272.73 111.457C253.482 69.0606 209.505 44.3301 167.676 23.8767C154.591 17.4812 139.306 11.1365 125.988 17.0454C112.083 23.2179 106.538 41.0158 109.518 55.9351C112.498 70.8545 121.934 83.5441 131.117 95.6864C114.576 81.9326 96.1598 68.3409 74.7233 66.4355C53.2868 64.53 29.0326 79.3987 28.7589 100.916C28.5157 120.052 45.7358 134.221 61.3039 145.34C34.0699 146.485 8.82252 167.182 2.36624 193.666C0.136438 202.798 0.0654603 212.822 4.36289 221.184C11.7314 235.535 29.6914 241.079 45.8271 241.019C61.9627 240.968 77.9869 236.792 94.082 237.998C65.2263 247.303 41.0026 270.026 29.8739 298.233C24.8974 310.842 22.4648 324.849 25.6068 338.035C28.7488 351.221 38.1951 363.343 51.1583 367.306C62.5506 370.793 74.926 367.752 85.9635 363.252C110.4 353.279 131.776 335.978 146.614 314.156C148.165 332.724 150.009 352.154 160.216 367.742C170.422 383.331 191.859 393.263 208.268 384.435C228.417 373.59 228.022 345.029 224.86 322.366C236.546 351.596 258.489 376.621 285.946 392.027C297.044 398.25 312.096 402.507 321.552 394.003C327.643 388.52 329.042 379.601 329.336 371.411C330.421 340.812 320.843 309.95 302.629 285.341C308.69 306.615 316.505 327.778 329.802 345.454C343.1 363.131 362.56 377.087 384.524 379.702C391.558 380.543 399.443 379.925 404.511 374.979C409.812 369.81 410.43 361.59 410.359 354.181C410.075 325.143 404.359 296.166 393.585 269.195C393.321 300.808 419.998 326.39 448.205 340.67C462.171 347.745 478.043 353.208 493.318 349.762C508.592 346.316 521.97 330.981 518.271 315.768C516.659 309.159 512.261 303.635 507.801 298.497C493.449 281.935 477.334 266.915 459.8 253.779C473.361 266.398 489.395 276.371 506.707 282.959C521.291 288.503 537.589 291.635 552.448 286.871C567.306 282.108 579.793 267.584 578.07 252.076C576.53 238.312 564.479 227.569 551.303 223.292C538.126 219.015 523.906 219.917 510.082 220.859C501.304 221.457 492.527 222.055 483.75 222.663" fill="#D3D3D3"/>
</svg>
