<svg width="381" height="263" viewBox="0 0 381 263" fill="none" xmlns="http://www.w3.org/2000/svg">
<path d="M317.851 113.796C330.362 115.392 343.134 119.805 351.48 129.259C359.832 138.712 362.282 154.068 354.491 163.989C346.967 173.57 333.2 175.225 321.022 174.791C299.184 174.017 277.512 168.963 257.583 160.003C273.901 168.048 286.632 184.138 288.301 202.258C289.971 220.378 279.155 239.585 261.943 245.487C258.939 246.516 255.601 247.143 252.616 246.062C249.852 245.06 247.796 242.743 245.987 240.433C234.677 225.986 228.154 207.859 227.66 189.519C230.184 211.184 223.06 233.79 208.566 250.087C201.322 258.233 190.359 265.203 180.024 261.731C169.89 258.326 165.27 246.442 164.595 235.767C163.547 219.196 169.062 202.305 179.684 189.546C167.005 217.473 138.037 233.764 110.483 247.237C101.864 251.449 91.7962 255.629 83.0235 251.736C73.8635 247.671 70.2116 235.947 72.1744 226.119C74.1372 216.292 80.3529 207.933 86.4017 199.935C75.5059 208.994 63.375 217.947 49.2545 219.203C35.134 220.458 19.1575 210.664 18.9772 196.49C18.817 183.885 30.1601 174.551 40.415 167.227C22.4756 166.473 5.84482 152.84 1.59198 135.394C0.123183 129.379 0.0764295 122.776 2.9072 117.268C7.76092 107.814 19.5914 104.162 30.2202 104.202C40.849 104.236 51.4043 106.986 62.0063 106.192C42.9987 100.063 27.0423 85.0946 19.7116 66.5144C16.4335 58.209 14.8312 48.9822 16.9009 40.2963C18.9705 31.6104 25.1929 23.6254 33.732 21.015C41.2362 18.7183 49.388 20.7212 56.6586 23.6855C72.7553 30.2551 86.8357 41.6516 96.6099 56.0258C97.6314 43.7947 98.8465 30.9961 105.57 20.7279C112.293 10.4597 126.413 3.91687 137.222 9.73197C150.495 16.8757 150.234 35.6896 148.151 50.618C155.849 31.3634 170.303 14.8794 188.39 4.73139C195.7 0.632107 205.615 -2.17197 211.844 3.42949C215.856 7.0414 216.778 12.9166 216.971 18.3111C217.686 38.467 211.376 58.7965 199.379 75.0067C203.371 60.993 208.519 47.0528 217.278 35.4092C226.038 23.7656 238.856 14.5723 253.324 12.8498C257.957 12.2957 263.152 12.7029 266.49 15.961C269.981 19.3659 270.389 24.7805 270.342 29.6609C270.155 48.7886 266.39 67.8763 259.293 85.6421C259.119 64.8186 276.691 47.9674 295.271 38.5605C304.472 33.9004 314.927 30.3018 324.988 32.5718C335.049 34.8417 343.862 44.9431 341.425 54.9643C340.364 59.3173 337.466 62.9558 334.528 66.3408C325.075 77.2499 314.459 87.1443 302.909 95.7968C311.842 87.4848 322.404 80.9153 333.807 76.5756C343.415 72.9237 354.15 70.8607 363.938 73.9986C373.725 77.1364 381.951 86.7036 380.816 96.9185C379.801 105.985 371.863 113.062 363.183 115.879C354.504 118.697 345.137 118.103 336.031 117.482C330.249 117.088 324.467 116.694 318.686 116.293" fill="#506583"/>
</svg>
