<svg width="435" height="168" viewBox="0 0 435 168" fill="none" xmlns="http://www.w3.org/2000/svg">
<path fill-rule="evenodd" clip-rule="evenodd" d="M84.2212 167.399C38.0085 167.399 0.545654 129.936 0.545654 83.7234C0.545654 37.5107 38.0085 0.0478516 84.2212 0.0478516C106.833 0.0478516 127.35 9.01705 142.409 23.5918C163.8 44.2961 187.976 68.0342 217.746 68.0342V68.0342C247.516 68.0342 271.692 44.2961 293.083 23.5918C308.142 9.01704 328.659 0.0478516 351.271 0.0478516C397.484 0.0478516 434.946 37.5107 434.946 83.7234C434.946 129.936 397.484 167.399 351.271 167.399C328.659 167.399 308.142 158.43 293.083 143.855C271.692 123.151 247.516 99.4126 217.746 99.4126V99.4126C187.976 99.4126 163.8 123.151 142.409 143.855C127.35 158.43 106.833 167.399 84.2212 167.399Z" fill="#FF4000"/>
</svg>
