<svg width="436" height="169" viewBox="0 0 436 169" fill="none" xmlns="http://www.w3.org/2000/svg">
<path fill-rule="evenodd" clip-rule="evenodd" d="M84.533 168.079C38.3203 168.079 0.857422 130.616 0.857422 84.4031C0.857422 38.1904 38.3203 0.727539 84.533 0.727539C107.145 0.727539 127.662 9.69674 142.721 24.2715C164.112 44.9758 188.288 68.7139 218.058 68.7139V68.7139C247.828 68.7139 272.003 44.9758 293.395 24.2715C308.454 9.69673 328.971 0.727539 351.583 0.727539C397.795 0.727539 435.258 38.1904 435.258 84.4031C435.258 130.616 397.795 168.079 351.583 168.079C328.971 168.079 308.454 159.109 293.395 144.535C272.003 123.83 247.828 100.092 218.058 100.092V100.092C188.288 100.092 164.112 123.83 142.721 144.535C127.662 159.109 107.145 168.079 84.533 168.079Z" fill="#FF4000"/>
</svg>
