<svg width="290" height="112" viewBox="0 0 290 112" fill="none" xmlns="http://www.w3.org/2000/svg">
<path fill-rule="evenodd" clip-rule="evenodd" d="M56.593 111.731C25.8613 111.731 0.948242 86.8177 0.948242 56.0859C0.948242 25.3542 25.8613 0.441162 56.593 0.441162C71.6301 0.441162 85.2741 6.40573 95.2882 16.098C109.514 29.8665 125.59 45.6525 145.388 45.6525V45.6525C165.185 45.6525 181.262 29.8665 195.488 16.098C205.502 6.40573 219.146 0.441162 234.183 0.441162C264.915 0.441162 289.828 25.3542 289.828 56.0859C289.828 86.8177 264.915 111.731 234.183 111.731C219.146 111.731 205.502 105.766 195.488 96.0738C181.262 82.3054 165.185 66.5193 145.388 66.5193V66.5193C125.59 66.5193 109.514 82.3054 95.2882 96.0738C85.2741 105.766 71.6301 111.731 56.593 111.731Z" fill="#506583"/>
</svg>
