<?xml version="1.0" encoding="UTF-8"?>
<svg id="Layer_1" data-name="Layer 1" xmlns="http://www.w3.org/2000/svg" viewBox="0 0 1181 468.002">
  <defs>
    <style>
      .cls-1 {
        fill: #1a1919;
        fill-rule: evenodd;
      }
    </style>
  </defs>
  <g id="Logo">
    <g id="logo">
      <g id="logo-_-black" data-name="logo- -black">
        <g id="HSE_design_logo_new" data-name="HSE design logo new">
          <polyline id="Fill-1" class="cls-1" points="57.691 129.789 34.313 129.789 34.313 230 0 230 0 2 34.313 2 34.313 93.322 57.691 93.322 57.691 2 92 2 92 230 57.691 230 57.691 129.789"/>
          <path id="Fill-2" class="cls-1" d="M152.152,233h-6.759c-27.648,0-42.393-15.038-42.393-43.285v-45.743h34.407v39.913c0,10.437,3.378,15.96,11.367,15.96,8.293,0,11.367-5.522,11.367-19.646v-5.219c0-16.267-1.537-22.1-14.13-38.37l-22.122-28.244c-14.744-19.035-19.044-33.769-19.044-56.487v-7.365c0-30.394,15.355-44.514,42.699-44.514h6.452c28.567,0,39.626,12.584,39.626,39.602v37.452h-33.482V44.207c0-7.676-1.537-13.509-9.833-13.509s-10.137,5.219-10.137,15.963v4.301c0,12.895,2.459,19.953,14.13,34.995l22.118,28.551c15.667,20.26,20.581,31.93,20.581,57.712v7.373c0,33.455-14.437,53.408-44.848,53.408"/>
          <polyline id="Fill-3" class="cls-1" points="286.177 2 286.177 35.094 242.374 35.094 242.374 94.855 276.745 94.855 276.745 129.486 242.374 129.486 242.374 195.373 288 195.373 288 230 208 230 208 2 286.177 2"/>
          <path id="Fill-4" class="cls-1" d="M377.765,153.084l-9.319-84.28-9.005,84.28h18.324Zm3.722,34.01h-25.461l-4.658,42.906h-31.369L348.258,2h41.617l30.126,228h-33.848l-4.665-42.906h-.001Z"/>
          <path id="Fill-5" class="cls-1" d="M459.967,95.772h9.282c9.591,0,12.688-6.129,12.688-16.242v-31.871c0-9.806-2.167-14.709-12.688-14.709h-9.282v62.821h0Zm0,134.229h-34.967V2h56.631c23.205,0,34.963,9.806,34.963,35.24v40.45c0,19.002-8.976,26.354-15.161,29.114,7.734,3.37,15.161,9.503,15.161,24.821v79.986c0,9.192,1.854,13.478,3.406,16.848v1.54h-34.661c-1.548-2.453-3.402-6.436-3.402-18.695v-68.644c0-10.116-1.854-14.406-12.997-14.406h-8.972v101.745h0Z"/>
          <polyline id="Fill-6" class="cls-1" points="585.058 35.094 585.058 230 550.942 230 550.942 35.094 522 35.094 522 2 614 2 614 35.094 585.058 35.094"/>
          <path id="Fill-7" class="cls-1" d="M693.768,153.084l-9.32-84.28-9.005,84.28h18.325Zm3.722,34.01h-25.465l-4.658,42.906h-31.366L664.262,2h41.611l30.127,228h-33.849l-4.662-42.906h0Z"/>
          <polyline id="Fill-8" class="cls-1" points="773.077 2 802.629 124.272 802.629 2 834 2 834 230 805.979 230 773.077 98.835 773.077 230 742 230 742 2 773.077 2"/>
          <path id="Fill-9" class="cls-1" d="M882.653,196.899h8.282c10.426,0,13.495-5.513,13.495-17.768V50.726c0-13.179-3.372-17.775-11.964-17.775h-9.812V196.899h0ZM848,2h53.058c29.74,0,38.942,16.852,38.942,43.823V184.644c0,27.884-10.426,45.356-38.942,45.356h-53.058V2h0Z"/>
          <path id="Fill-10" class="cls-1" d="M34.655,431.902h8.278c10.426,0,13.495-5.513,13.495-17.768v-128.408c0-13.176-3.372-17.775-11.961-17.775h-9.813v163.951h.001ZM0,237H53.056c29.741,0,38.944,16.855,38.944,43.82v138.83c0,27.881-10.426,45.35-38.944,45.35H0V237H0Z"/>
          <polyline id="Fill-11" class="cls-1" points="183.174 237 183.174 270.098 139.374 270.098 139.374 329.853 173.745 329.853 173.745 364.488 139.374 364.488 139.374 430.376 185 430.376 185 465 105 465 105 237 183.174 237"/>
          <path id="Fill-12" class="cls-1" d="M241.152,468h-6.759c-27.648,0-42.393-15.041-42.393-43.287v-45.738h34.407v39.908c0,10.437,3.378,15.963,11.363,15.963,8.296,0,11.37-5.526,11.37-19.645v-5.218c0-16.27-1.537-22.103-14.13-38.373l-22.122-28.246c-14.744-19.031-19.044-33.761-19.044-56.475v-7.372c0-30.393,15.356-44.516,42.7-44.516h6.452c28.567,0,39.626,12.594,39.626,39.601v37.458h-33.482v-32.85c0-7.676-1.537-13.509-9.833-13.509s-10.137,5.219-10.137,15.963v4.301c0,12.891,2.459,19.956,14.13,34.994l22.118,28.546c15.667,20.263,20.581,31.929,20.581,57.718v7.369c0,33.454-14.437,53.41-44.848,53.41"/>
          <g id="Group-16">
            <polygon id="Fill-13" class="cls-1" points="295.13 464.937 330.13 464.937 330.13 237.243 295.13 237.243 295.13 464.937"/>
            <path id="Fill-15" class="cls-1" d="M375.664,468c-20.441,0-33.447-18.054-33.447-41.621v-142.316c0-25.397,9.91-48.967,43.051-48.967h6.811c37.479,0,41.815,24.179,41.815,51.115v23.261h-34.07v-25.714c0-10.095-2.479-15.604-11.147-15.604-7.435,0-10.844,5.509-10.844,15.604v133.135c0,10.708,4.335,16.22,11.46,16.22,8.984,0,13.006-6.121,13.006-14.693v-56.923h-15.795v-34.891h48.936v138.331h-19.821c-.31-1.225-3.096-12.545-5.885-22.338-2.479,7.653-14.249,25.401-31.901,25.401h-2.169"/>
          </g>
          <polyline id="Fill-17" class="cls-1" points="478.073 237 507.626 359.271 507.626 237 539 237 539 465 510.975 465 478.073 333.836 478.073 465 447 465 447 237 478.073 237"/>
          <path id="Fill-18" class="cls-1" d="M630.152,468h-6.759c-27.645,0-42.393-15.041-42.393-43.287v-45.738h34.407v39.908c0,10.437,3.378,15.963,11.367,15.963,8.293,0,11.363-5.526,11.363-19.645v-5.218c0-16.27-1.533-22.103-14.133-38.373l-22.115-28.246c-14.745-19.031-19.044-33.761-19.044-56.475v-7.372c0-30.393,15.359-44.516,42.7-44.516h6.452c28.567,0,39.626,12.594,39.626,39.601v37.458h-33.485v-32.85c0-7.676-1.533-13.509-9.83-13.509s-10.133,5.219-10.133,15.963v4.301c0,12.891,2.456,19.956,14.126,34.994l22.118,28.546c15.667,20.263,20.581,31.929,20.581,57.718v7.369c0,33.454-14.437,53.41-44.848,53.41"/>
          <path id="Fill-19" class="cls-1" d="M741.215,418.948v-53.037h33.785v52.73c0,24.531-7.915,49.359-41.087,49.359h-7.61c-34.699,0-42.302-25.138-42.302-48.128v-139.191c0-23.294,10.04-45.681,41.087-45.681h7.911c37.741,0,42.001,25.145,42.001,47.525v40.769h-33.785v-40.159c0-9.81-3.042-15.021-11.559-15.021s-10.656,4.908-10.656,15.021v135.506c0,10.116,3.347,15.635,10.957,15.635,8.216,0,11.258-6.132,11.258-15.328"/>
          <polyline id="Fill-20" class="cls-1" points="843.687 364.794 820.309 364.794 820.309 465 786 465 786 237 820.309 237 820.309 328.323 843.687 328.323 843.687 237 878 237 878 465 843.687 465 843.687 364.794"/>
          <path id="Fill-21" class="cls-1" d="M950.643,285.589c0-11.957-3.996-17.476-11.987-17.476-8.914,0-12.302,5.829-12.302,17.476v131.215c0,9.81,2.769,17.472,12.606,17.472,9.226,0,11.683-7.662,11.683-17.472v-131.215h0Zm35.357,128.764c0,31.88-10.764,53.647-44.272,53.647h-5.845c-33.204,0-44.883-21.767-44.883-53.647v-126.927c0-31.577,11.991-52.427,44.576-52.427h5.845c33.815,0,44.579,20.85,44.579,52.12v127.234h0Z"/>
          <path id="Fill-22" class="cls-1" d="M1055.645,285.589c0-11.957-4-17.476-11.991-17.476-8.915,0-12.299,5.829-12.299,17.476v131.215c0,9.81,2.765,17.472,12.603,17.472,9.226,0,11.687-7.662,11.687-17.472v-131.215h0Zm35.355,128.764c0,31.88-10.761,53.647-44.273,53.647h-5.842c-33.205,0-44.885-21.767-44.885-53.647v-126.927c0-31.577,11.988-52.427,44.577-52.427h5.845c33.817,0,44.577,20.85,44.577,52.12v127.234h0Z"/>
          <polyline id="Fill-23" class="cls-1" points="1138.668 237 1138.668 429.759 1181 429.759 1181 465 1104 465 1104 237 1138.668 237"/>
        </g>
      </g>
    </g>
  </g>
</svg>