<svg alt="HSE ART AND DESIGN SCHOOL" class="mainlogo_design_svg" style="margin-top: -3.5rem; max-width:100%; width: 1200px;" version="1.1" viewBox="0 0 1276 468" xmlns="http://www.w3.org/2000/svg" xmlns:xlink="http://www.w3.org/1999/xlink"> <defs> <polygon id="path-1" points="0.130451262 0.0958191715 140.440304 0.0958191715 140.440304 232.78634 0.130451262 232.78634"></polygon> </defs> <g fill="none" fill-rule="evenodd" id="Logo" stroke="none" stroke-width="1"> <g id="logo" transform="translate(-61.000000, -221.000000)"> <g id="logo-/-black" transform="translate(61.000000, 221.000000)"> <g id="HSE_design_logo_new"> <polyline fill="#1A1919" id="Fill-1" points="57.6907834 129.788683 34.3127496 129.788683 34.3127496 230 0 230 0 2 34.3127496 2 34.3127496 93.321948 57.6907834 93.321948 57.6907834 2 92 2 92 230 57.6907834 230 57.6907834 129.788683"></polyline> <path d="M152.151799,233 L145.392577,233 C117.744467,233 103,217.961981 103,189.714794 L103,143.972068 L137.407331,143.972068 L137.407331,183.885329 C137.407331,194.322643 140.785155,199.844918 148.773975,199.844918 C157.066621,199.844918 160.140619,194.322643 160.140619,180.19905 L160.140619,174.980392 C160.140619,158.713613 158.60362,152.880576 146.010951,136.610225 L123.888889,108.36661 C109.144422,89.3315499 104.844399,74.5971486 104.844399,51.8793807 L104.844399,44.513966 C104.844399,14.1200215 120.200091,0 147.544376,0 L153.996197,0 C182.562933,0 193.622177,12.5840717 193.622177,39.6024989 L193.622177,77.0546681 L160.140619,77.0546681 L160.140619,44.206776 C160.140619,36.5305994 158.60362,30.6975625 150.3074,30.6975625 C142.014754,30.6975625 140.170355,35.9162195 140.170355,46.6607236 L140.170355,50.9613828 C140.170355,63.8562165 142.629554,70.9144412 154.300023,85.9560325 L176.418511,114.506837 C192.085178,134.767086 197,146.436732 197,172.219255 L197,179.591814 C197,213.046942 182.562933,233 152.151799,233" fill="#1A1919" id="Fill-2"></path> <polyline fill="#1A1919" id="Fill-3" points="286.177233 2 286.177233 35.0935535 242.374198 35.0935535 242.374198 94.8552125 276.744857 94.8552125 276.744857 129.485596 242.374198 129.485596 242.374198 195.373182 288 195.373182 288 230 208 230 208 2 286.177233 2"></polyline> <path d="M377.765412,153.083607 L368.446195,68.8039786 L359.441353,153.083607 L377.765412,153.083607 Z M381.487317,187.093554 L356.026595,187.093554 L351.368794,230 L320,230 L348.25757,2 L389.87425,2 L420,230 L386.152345,230 L381.487317,187.093554 L381.487317,187.093554 Z" fill="#1A1919" id="Fill-4"></path> <path d="M459.967028,95.7716055 L469.248844,95.7716055 C478.840294,95.7716055 481.936633,89.6421132 481.936633,79.5296988 L481.936633,47.6591911 C481.936633,37.8534297 479.769196,32.9505489 469.248844,32.9505489 L459.967028,32.9505489 L459.967028,95.7716055 Z M459.967028,230 L425,230 L425,2 L481.6306,2 C504.83514,2 516.594027,11.8057615 516.594027,37.2401239 L516.594027,77.6897814 C516.594027,96.6915642 507.618245,104.044102 501.432767,106.803979 C509.166414,110.173595 516.594027,116.306653 516.594027,131.625035 L516.594027,211.611523 C516.594027,220.803979 518.44823,225.089988 520,228.459604 L520,230 L485.339006,230 C483.790836,227.546777 481.936633,223.563855 481.936633,211.30487 L481.936633,142.660974 C481.936633,132.544994 480.08243,128.255419 468.93921,128.255419 L459.967028,128.255419 L459.967028,230 L459.967028,230 Z" fill="#1A1919" id="Fill-5"></path> <polyline fill="#1A1919" id="Fill-6" points="585.05837 35.0935535 585.05837 230 550.94163 230 550.94163 35.0935535 522 35.0935535 522 2 614 2 614 35.0935535 585.05837 35.0935535"></polyline> <path d="M693.767499,153.083607 L684.447946,68.8039786 L675.442778,153.083607 L693.767499,153.083607 Z M697.489539,187.093554 L672.024284,187.093554 L667.366314,230 L636,230 L664.262205,2 L705.873162,2 L736,230 L702.151122,230 L697.489539,187.093554 L697.489539,187.093554 Z" fill="#1A1919" id="Fill-7"></path> <polyline fill="#1A1919" id="Fill-8" points="773.076674 2 802.629113 124.272497 802.629113 2 834 2 834 230 805.978886 230 773.076674 98.8345688 773.076674 230 742 230 742 2 773.076674 2"></polyline> <path d="M882.653428,196.899315 L890.934998,196.899315 C901.360999,196.899315 904.429569,191.386694 904.429569,179.131275 L904.429569,50.7257202 C904.429569,37.5467768 901.05771,32.9505489 892.465715,32.9505489 L882.653428,32.9505489 L882.653428,196.899315 Z M848,2 L901.05771,2 C930.797859,2 940,18.8516468 940,45.8228394 L940,184.643896 C940,212.527916 929.573999,230 901.05771,230 L848,230 L848,2 L848,2 Z" fill="#1A1919" id="Fill-9"></path> <path d="M34.6547725,431.902363 L42.9330955,431.902363 C53.3595004,431.902363 56.4281891,426.389656 56.4281891,414.134045 L56.4281891,285.726482 C56.4281891,272.550898 53.0561998,267.951033 44.4674398,267.951033 L34.6547725,267.951033 L34.6547725,431.902363 Z M0,237 L53.0561998,237 C82.7975022,237 92,253.855476 92,280.819959 L92,419.650318 C92,447.531208 81.573595,465 53.0561998,465 L0,465 L0,237 L0,237 Z" fill="#1A1919" id="Fill-10"></path> <polyline fill="#1A1919" id="Fill-11" points="183.173694 237 183.173694 270.097637 139.374198 270.097637 139.374198 329.853099 173.744857 329.853099 173.744857 364.48759 139.374198 364.48759 139.374198 430.376206 185 430.376206 185 465 105 465 105 237 183.173694 237"></polyline> <path d="M241.151799,468 L234.392577,468 C206.744467,468 192,452.95887 192,424.712549 L192,378.974798 L226.407331,378.974798 L226.407331,418.883263 C226.407331,429.320257 229.785155,434.845935 237.770401,434.845935 C246.066621,434.845935 249.140619,429.320257 249.140619,415.200668 L249.140619,409.982171 C249.140619,393.712319 247.60362,387.879461 235.010951,371.609609 L212.888889,343.363288 C198.144422,324.332383 193.844399,309.602005 193.844399,286.888506 L193.844399,279.516173 C193.844399,249.12316 209.200091,235 236.544376,235 L242.996197,235 C271.562933,235 282.622177,247.594402 282.622177,274.601285 L282.622177,312.059449 L249.140619,312.059449 L249.140619,279.208993 C249.140619,271.533051 247.60362,265.700193 239.3074,265.700193 C231.014754,265.700193 229.170355,270.91869 229.170355,281.662865 L229.170355,285.963392 C229.170355,298.854259 231.629554,305.919411 243.300023,320.956969 L265.418511,349.503327 C281.085178,369.766526 286,381.432242 286,407.221118 L286,414.589879 C286,448.043981 271.562933,468 241.151799,468" fill="#1A1919" id="Fill-12"></path> <g id="Group-16" transform="translate(295.000000, 235.000000)"> <mask fill="white" id="mask-2"> <use xlink:href="#path-1"></use> </mask> <g id="Clip-14"></g> <polygon fill="#1A1919" id="Fill-13" mask="url(#mask-2)" points="0.130451262 229.937533 35.1304331 229.937533 35.1304331 2.24310712 0.130451262 2.24310712"></polygon> <path d="M80.664285,233 C60.2236037,233 47.2175355,214.945688 47.2175355,191.378936 L47.2175355,49.063243 C47.2175355,23.6661325 57.1279504,0.0958191715 90.268378,0.0958191715 L97.0795359,0.0958191715 C134.558923,0.0958191715 138.894279,24.2750649 138.894279,51.210531 L138.894279,74.4710366 L104.824075,74.4710366 L104.824075,48.7569963 C104.824075,38.6615381 102.344669,33.1526584 93.6775607,33.1526584 C86.2429476,33.1526584 82.8337649,38.6615381 82.8337649,48.7569963 L82.8337649,181.89241 C82.8337649,192.600362 87.169121,198.112803 94.2938084,198.112803 C103.27805,198.112803 107.299877,191.991429 107.299877,183.420083 L107.299877,126.497367 L91.504477,126.497367 L91.504477,91.6066081 L140.440304,91.6066081 L140.440304,229.937533 L120.619474,229.937533 C120.309549,228.712546 117.523821,217.392101 114.73449,207.599328 C112.255084,215.251935 100.485115,233 82.8337649,233 L80.664285,233" fill="#1A1919" id="Fill-15" mask="url(#mask-2)"></path> </g> <polyline fill="#1A1919" id="Fill-17" points="478.073129 237 507.625568 359.270843 507.625568 237 539 237 539 465 510.975341 465 478.073129 333.836083 478.073129 465 447 465 447 237 478.073129 237"></polyline> <path d="M630.151799,468 L623.392577,468 C595.748042,468 581,452.95887 581,424.712549 L581,378.974798 L615.407331,378.974798 L615.407331,418.883263 C615.407331,429.320257 618.785155,434.845935 626.773975,434.845935 C635.066621,434.845935 638.137045,429.320257 638.137045,415.200668 L638.137045,409.982171 C638.137045,393.712319 636.60362,387.879461 624.003803,371.609609 L601.888889,343.363288 C587.144422,324.332383 582.844399,309.602005 582.844399,286.888506 L582.844399,279.516173 C582.844399,249.12316 598.203666,235 625.544376,235 L631.996197,235 C660.562933,235 671.622177,247.594402 671.622177,274.601285 L671.622177,312.059449 L638.137045,312.059449 L638.137045,279.208993 C638.137045,271.533051 636.60362,265.700193 628.3074,265.700193 C620.014754,265.700193 618.17393,270.91869 618.17393,281.662865 L618.17393,285.963392 C618.17393,298.854259 620.629554,305.919411 632.300023,320.956969 L654.418511,349.503327 C670.085178,369.766526 675,381.432242 675,407.221118 L675,414.589879 C675,448.043981 660.562933,468 630.151799,468" fill="#1A1919" id="Fill-18"></path> <path d="M741.214975,418.947932 L741.214975,365.911341 L775,365.911341 L775,418.641156 C775,443.17254 767.084955,468 733.912593,468 L726.302109,468 C691.603401,468 684,442.862197 684,419.871827 L684,280.681099 C684,257.38752 694.039889,235 725.087407,235 L732.99891,235 C770.739687,235 775,260.144937 775,282.525322 L775,323.294436 L741.214975,323.294436 L741.214975,283.135307 C741.214975,273.325607 738.172906,268.113981 729.655822,268.113981 C721.128113,268.113981 718.999728,273.022398 718.999728,283.135307 L718.999728,418.641156 C718.999728,428.757632 722.346357,434.276034 729.956842,434.276034 C738.172906,434.276034 741.214975,428.14408 741.214975,418.947932" fill="#1A1919" id="Fill-19"></path> <polyline fill="#1A1919" id="Fill-20" points="843.68725 364.794248 820.309217 364.794248 820.309217 465 786 465 786 237 820.309217 237 820.309217 328.323376 843.68725 328.323376 843.68725 237 878 237 878 465 843.68725 465 843.68725 364.794248"></polyline> <path d="M950.642844,285.589516 C950.642844,273.632383 946.647099,268.113981 938.655609,268.113981 C929.741198,268.113981 926.353579,273.942726 926.353579,285.589516 L926.353579,416.804066 C926.353579,426.613766 929.122341,434.276034 938.959672,434.276034 C948.1853,434.276034 950.642844,426.613766 950.642844,416.804066 L950.642844,285.589516 Z M986,414.353425 C986,446.233167 975.236171,468 941.728433,468 L935.88327,468 C902.679595,468 891,446.233167 891,414.353425 L891,287.426605 C891,255.850072 902.990812,235 935.57563,235 L941.420793,235 C975.236171,235 986,255.850072 986,287.119829 L986,414.353425 L986,414.353425 Z" fill="#1A1919" id="Fill-21"></path> <path d="M1055.64509,285.589516 C1055.64509,273.632383 1051.64562,268.113981 1043.65383,268.113981 C1034.73908,268.113981 1031.35491,273.942726 1031.35491,285.589516 L1031.35491,416.804066 C1031.35491,426.613766 1034.1202,434.276034 1043.9579,434.276034 C1053.18388,434.276034 1055.64509,426.613766 1055.64509,416.804066 L1055.64509,285.589516 Z M1091,414.353425 C1091,446.233167 1080.23934,468 1046.72677,468 L1040.88496,468 C1007.68003,468 996,446.233167 996,414.353425 L996,287.426605 C996,255.850072 1007.98769,235 1040.57731,235 L1046.42269,235 C1080.23934,235 1091,255.850072 1091,287.119829 L1091,414.353425 L1091,414.353425 Z" fill="#1A1919" id="Fill-22"></path> <polyline fill="#1A1919" id="Fill-23" points="1138.66803 237 1138.66803 429.759325 1181 429.759325 1181 465 1104 465 1104 237 1138.66803 237"></polyline> <g id="logo-/-hse-blue+text" transform="translate(1181.000000, 235.000000)"> <g id="slice1"> <path d="M47.3916667,0.28125 C21.2995833,0.28125 0.1475,21.4333333 0.1475,47.5254167 C0.1475,73.6175 21.2995833,94.7695833 47.3916667,94.7695833 C73.48375,94.7695833 94.6358333,73.6175 94.6358333,47.5254167 C94.6358333,21.4333333 73.48375,0.28125 47.3916667,0.28125" fill="#002D6E" id="Fill-1"></path> <path d="M37.3745833,81.9 C36.5091667,81.64875 35.8854167,81.8358333 35.6908333,82.5054167 C35.5141667,83.1129167 35.89375,83.6145833 36.8929167,83.9045833 L38.38625,84.3383333 L38.9608333,82.3608333 L37.3745833,81.9 Z M36.8595833,85.0566667 C36.0458333,84.8204167 35.4070833,84.9808333 35.2095833,85.6608333 C35.045,86.2275 35.3966667,86.7091667 36.2104167,86.9458333 L37.5183333,87.3258333 L38.075,85.4095833 L36.8595833,85.0566667 Z M38.4520833,88.76375 L35.7058333,88.0666667 C34.8820833,87.8270833 34.3120833,87.36625 34.02,86.8341667 C33.7933333,86.4220833 33.7420833,85.9829167 33.88875,85.4783333 C34.1404167,84.6129167 34.7691667,84.2929167 35.3858333,84.1704167 C34.625,83.6366667 34.1783333,82.9820833 34.46875,81.9829167 C34.8425,80.6954167 36.1041667,80.3133333 37.71125,80.78 L40.5333333,81.6 L38.4520833,88.76375 L38.4520833,88.76375 Z" fill="#FFFFFF" id="Fill-2"></path> <path d="M29.2120833,81.2433333 C28.3525,80.7375 28.0745833,80.0883333 28.46625,79.4229167 C28.8958333,78.6925 29.6091667,78.6020833 30.4504167,79.0970833 L31.44875,79.6845833 L30.1920833,81.82 L29.2120833,81.2433333 Z M31.03,78.0691667 C29.5325,77.1879167 28.1108333,77.44625 27.34375,78.75 C26.5766667,80.0533333 27.1325,81.35125 28.58375,82.2054167 L29.61,82.8091667 L28.23875,85.13875 L29.3666667,85.8025 L33.175,79.33125 L31.03,78.0691667 L31.03,78.0691667 Z" fill="#FFFFFF" id="Fill-3"></path> <polyline fill="#FFFFFF" id="Fill-4" points="21.9641667 81.28125 26.2825 75.13875 27.3529167 75.89125 23.0345833 82.03375 21.9641667 81.28125"></polyline> <path d="M6.72875,43.75375 C6.64166667,44.8229167 7.11833333,45.1845833 7.70625,45.2325 C8.47583333,45.295 8.91541667,44.6529167 8.9775,43.89375 L9.04708333,43.0383333 L6.82333333,42.8575 C6.78375,43.2091667 6.74875,43.5079167 6.72875,43.75375 M12.9695833,43.3804167 L10.27625,43.1383333 L10.2016667,44.0579167 L11.9645833,45.5358333 C12.8408333,46.2745833 13.0058333,47.1595833 12.7191667,47.77125 L11.5829167,47.7929167 C11.7345833,47.3858333 11.4966667,46.7891667 11.1454167,46.4808333 L9.83791667,45.3520833 C9.57375,45.9545833 8.86541667,46.7258333 7.58208333,46.62125 C6.28875,46.51625 5.29541667,45.7708333 5.46166667,43.72875 C5.47916667,43.515 5.65541667,41.8720833 5.7275,41.45625 L13.15375,42.0516667 L12.9695833,43.3804167" fill="#FFFFFF" id="Fill-5"></path> <path d="M18.7925,70.9883333 C19.6195833,70.8129167 20.4879167,71.0479167 21.1291667,71.7404167 C22.1420833,72.8345833 21.97375,74.4375 20.9033333,75.4283333 C19.8170833,76.4341667 18.23625,76.4791667 17.22375,75.385 C16.6025,74.71375 16.4270833,73.85125 16.6304167,73.0558333 L15.3116667,72.7770833 C15.0754167,73.9304167 15.3841667,75.1820833 16.3195833,76.1925 C17.8858333,77.885 20.2925,77.8791667 21.8433333,76.44375 C23.4095833,74.99375 23.6,72.6254167 22.0333333,70.9329167 C21.07375,69.89625 19.79875,69.4975 18.5983333,69.67375 L18.7925,70.9883333" fill="#FFFFFF" id="Fill-6"></path> <path d="M10.5179167,54.7504167 L7.37666667,53.9633333 L10.11125,52.22125 C10.165,52.6458333 10.2254167,53.0704167 10.2933333,53.49125 C10.3604167,53.9108333 10.43625,54.33125 10.5179167,54.7504167 M5.71958333,53.5883333 L5.91375,54.7958333 L14.0041667,56.87625 L13.6533333,55.5125 L11.7775,55.0483333 L11.7741667,55.0479167 C11.6529167,54.4704167 11.5445833,53.88625 11.4508333,53.305 C11.3575,52.7220833 11.2770833,52.1325 11.2116667,51.5445833 L11.2141667,51.5429167 L12.8495833,50.5320833 L12.7516667,49.0870833 L5.71958333,53.5883333" fill="#FFFFFF" id="Fill-7"></path> <path d="M13.7783333,60.0666667 C14.1241667,60.9975 14.5075,61.9120833 14.9279167,62.8091667 L9.30541667,65.5729167 C9.49333333,65.9704167 9.68708333,66.3654167 9.8875,66.7570833 L15.5104167,63.9929167 C15.9570833,64.86125 16.43875,65.7116667 16.95625,66.5429167 L11.32125,69.3383333 C11.5475,69.7141667 11.78,70.08625 12.0183333,70.455 L17.6891667,67.6716667 L18.79625,67.1279167 C16.9329167,64.3975 15.4770833,61.4358333 14.4545833,58.2970833 L13.3479167,58.8408333 L7.67916667,61.6270833 C7.82541667,62.0404167 7.97833333,62.45125 8.1375,62.8595833 L13.7783333,60.0666667" fill="#FFFFFF" id="Fill-8"></path> <path d="M84.3604167,36.5625 C85.7279167,36.0545833 86.4941667,34.6370833 85.975,33.2391667 C85.45625,31.8416667 83.9775,31.2808333 82.59,31.79625 C81.2225,32.3041667 80.4558333,33.7216667 80.975,35.1191667 C81.4941667,36.5170833 82.9729167,37.0779167 84.3604167,36.5625 M82.1083333,30.4991667 C84.0891667,29.7633333 86.3158333,30.6754167 87.1191667,32.8370833 C87.9220833,34.9991667 86.8433333,37.11625 84.8420833,37.8595833 C82.86125,38.5954167 80.6345833,37.6833333 79.8316667,35.52125 C79.0283333,33.3595833 80.1070833,31.2425 82.1083333,30.4991667" fill="#FFFFFF" id="Fill-9"></path> <path d="M84.8554167,56.7545833 C86.2920833,57.0079167 87.6704167,56.1729167 87.9291667,54.7041667 C88.1883333,53.23625 87.1966667,52.0045833 85.73875,51.7475 C84.3020833,51.4941667 82.92375,52.3291667 82.665,53.7975 C82.4058333,55.2658333 83.3979167,56.4975 84.8554167,56.7545833 M85.9791667,50.385 C88.06,50.7520833 89.52,52.665 89.1191667,54.93625 C88.71875,57.2070833 86.7170833,58.4879167 84.615,58.1170833 C82.5341667,57.75 81.0745833,55.8370833 81.475,53.5658333 C81.8758333,51.2945833 83.8770833,50.0141667 85.9791667,50.385" fill="#FFFFFF" id="Fill-10"></path> <path d="M78.8445833,28.7904167 L79.6295833,26.3504167 L84.185,26.9970833 L83.3770833,25.6870833 L79.3720833,25.23375 L78.9533333,24.5958333 L81.5629167,22.8833333 L80.7666667,21.82625 L74.5620833,25.9004167 L75.3366667,26.9695833 L77.93125,25.2670833 L78.4283333,26.0245833 L77.6554167,28.2491667 C77.2429167,29.38 77.1395833,30.4741667 78.03,31.2241667 L78.9895833,30.5941667 C78.5754167,30.2370833 78.57375,29.6483333 78.8445833,28.7904167" fill="#FFFFFF" id="Fill-11"></path> <path d="M65.3016667,79.4516667 L67.72,80.30125 L66.9529167,84.8375 L68.28375,84.0645833 L68.8429167,80.0733333 L69.4916667,79.6716667 L71.135,82.3254167 L72.2125,81.5579167 L68.3041667,75.2470833 L67.2145833,75.9933333 L68.8479167,78.6320833 L68.0775,79.1091667 L65.8741667,78.2775 C64.7545833,77.8345833 63.66375,77.7029167 62.8904167,78.5729167 L63.4945833,79.54875 C63.8625,79.1441667 64.45125,79.1583333 65.3016667,79.4516667" fill="#FFFFFF" id="Fill-12"></path> <polyline fill="#FFFFFF" id="Fill-13" points="80.5870833 73.4591667 79.7695833 74.4708333 75.7770833 70.8041667 76.99375 77.4941667 76.0670833 78.38625 70.5741667 73.3420833 71.5170833 72.4458333 75.54625 76.1458333 74.32 69.3933333 75.0916667 68.4125 80.5870833 73.4591667"></polyline> <polyline fill="#FFFFFF" id="Fill-14" points="63.4320833 86.47125 62.2216667 86.9466667 60.5629167 81.7854167 58.31375 88.2029167 57.0675 88.52 54.7858333 81.4204167 56.0483333 81.1070833 57.7220833 86.315 59.99375 79.8391667 61.1491667 79.3679167 63.4320833 86.47125"></polyline> <path d="M79.8633333,66.7395833 C80.7558333,67.1275 81.8241667,67.58875 82.7408333,68.0545833 L82.7566667,68.0225 C82.0504167,67.3833333 78.26375,63.2404167 78.26375,63.2404167 L78.7566667,62.2420833 C78.7566667,62.2420833 84.2391667,62.9 85.175,63.1245833 L85.1854167,63.1033333 C84.3195833,62.63625 83.2683333,62.0641667 82.3729167,61.55625 L79.7366667,60.0558333 L80.2095833,58.78375 L86.7245833,62.61 L86.0066667,64.3675 C86.0066667,64.3675 80.9220833,63.8133333 80.08125,63.6229167 L80.0658333,63.6545833 C80.7025,64.2066667 84.2070833,68.0125 84.2070833,68.0125 L83.2583333,69.62625 L76.30375,66.7116667 L77.04,65.5170833 L79.8633333,66.7395833" fill="#FFFFFF" id="Fill-15"></path> <path d="M89.4566667,45.7454167 L86.34875,46.0366667 L86.3304167,46.0383333 C86.3025,45.3229167 86.255,44.6045833 86.1883333,43.8933333 C86.1220833,43.1820833 86.035,42.4666667 85.9295833,41.7591667 L85.9479167,41.7575 L89.07875,41.4641667 L88.8670833,40.15875 L81.4570833,40.8533333 L81.6666667,42.15875 L84.7304167,41.8716667 L84.7604167,41.86875 C84.8666667,42.5754167 84.9541667,43.29125 85.0208333,44.0025 C85.0875,44.7141667 85.1345833,45.4325 85.16125,46.1479167 L85.13125,46.1508333 L82.07125,46.4375 L82.1041667,47.7595833 L89.5195833,47.0645833 L89.4566667,45.7454167" fill="#FFFFFF" id="Fill-16"></path> <path d="M75.8041667,16.1054167 C74.7854167,15.1791667 73.5308333,14.8825 72.38,15.1291667 L72.6708333,16.4454167 C73.4645833,16.2345833 74.3279167,16.4020833 75.005,17.0170833 C75.9545833,17.8795833 76.0620833,19.17 75.4404167,20.21125 C74.88625,19.6441667 74.3129167,19.09 73.7270833,18.5575 C73.4825,18.3358333 73.2333333,18.1145833 72.9854167,17.9 L72.21875,18.7875 C72.4595833,18.9954167 72.70125,19.2104167 72.93875,19.4254167 C73.5258333,19.95875 74.0991667,20.5145833 74.6529167,21.0833333 C73.6775,21.8029167 72.3508333,21.8233333 71.3966667,20.95625 C70.6983333,20.32125 70.4558333,19.4545833 70.6229167,18.62625 L69.3070833,18.4441667 C69.1416667,19.64625 69.5516667,20.9175 70.5975,21.8675 C72.3041667,23.4183333 74.67125,23.20625 76.10625,21.6266667 C77.5275,20.0625 77.51125,17.65625 75.8041667,16.1054167" fill="#FFFFFF" id="Fill-17"></path> <path d="M37.9558333,10.21125 C37.505,8.82375 36.1204167,7.99916667 34.7020833,8.46 C33.2845833,8.92083333 32.6629167,10.375 33.1204167,11.7825 C33.57125,13.17 34.9558333,13.9945833 36.37375,13.53375 C37.7916667,13.0729167 38.4133333,11.6191667 37.9558333,10.21125 M31.8045833,12.2104167 C31.15125,10.2008333 32.1545833,8.01333333 34.3479167,7.30083333 C36.54125,6.58791667 38.6120833,7.75375 39.2716667,9.78375 C39.925,11.7933333 38.92125,13.9804167 36.7279167,14.6933333 C34.5345833,15.4058333 32.4641667,14.2404167 31.8045833,12.2104167" fill="#FFFFFF" id="Fill-18"></path> <path d="M29.6941667,15.4975 L27.2808333,14.63375 L28.0745833,10.1020833 L26.7391667,10.8670833 L26.1566667,14.855 L25.5054167,15.2529167 L23.8779167,12.5891667 L22.7958333,13.3508333 L26.6670833,19.6841667 L27.7608333,18.9445833 L26.1429167,16.29625 L26.91625,15.82375 L29.115,16.6683333 C30.2316667,17.1175 31.3216667,17.2558333 32.1,16.3904167 L31.5016667,15.41125 C31.1316667,15.8133333 30.5429167,15.7958333 29.6941667,15.4975" fill="#FFFFFF" id="Fill-19"></path> <path d="M22.7829167,21.4745833 C22.0608333,22.15625 21.36875,22.86625 20.7070833,23.60375 L15.9675,19.5066667 C15.6745833,19.835 15.3866667,20.1675 15.1041667,20.5045833 L19.8441667,24.6020833 C19.2195833,25.3520833 18.6245833,26.1279167 18.0616667,26.9291667 L13.2879167,22.8325 C13.0304167,23.1875 12.7783333,23.5470833 12.5316667,23.91 L17.3083333,28.0441667 L18.24125,28.85125 C20.0275,26.0695833 22.1858333,23.5729167 24.67625,21.40625 L18.965,16.46875 C18.6416667,16.765 18.3229167,17.06625 18.0091667,17.3720833 L22.7829167,21.4745833" fill="#FFFFFF" id="Fill-20"></path> <path d="M53.0720833,10.37125 L54.8745833,7.68125 L55.59,10.8433333 C55.1720833,10.7504167 54.7520833,10.6641667 54.3333333,10.5854167 C53.9154167,10.5070833 53.4941667,10.4358333 53.0720833,10.37125 M55.7875,6.24833333 L54.5854167,6.0225 L49.8929167,12.93375 L51.2954167,13.0645833 L52.3658333,11.4558333 L52.3675,11.4533333 C52.9520833,11.5341667 53.5383333,11.6295833 54.1170833,11.7379167 C54.6970833,11.8466667 55.2791667,11.9708333 55.855,12.1075 L55.8554167,12.1104167 L56.2541667,13.99125 L57.6470833,14.3875 L55.7875,6.24833333" fill="#FFFFFF" id="Fill-21"></path> <path d="M45.6179167,5.43958333 L42.7920833,5.65458333 C42.7291667,5.66166667 42.66625,5.66875 42.60375,5.67583333 L42.6925,6.84583333 L42.7154167,7.145 C43.05625,11.62625 42.3870833,12.16125 41.6279167,12.2191667 C41.4670833,12.23125 41.29375,12.2125 41.195,12.1875 L41.14875,13.2775 C41.35625,13.3158333 41.7783333,13.3483333 42.0670833,13.32625 C43.5429167,13.21375 44.3366667,12.1958333 43.9745833,7.43625 L43.9183333,6.72333333 C44.04375,6.7125 44.1695833,6.70125 44.295,6.69166667 C45.0316667,6.63583333 45.7725,6.59958333 46.5129167,6.58291667 L46.99125,12.8654167 L48.3066667,12.765 L47.74625,5.40041667 C47.0383333,5.39583333 46.3275,5.40916667 45.6179167,5.43958333" fill="#FFFFFF" id="Fill-22"></path> <path d="M48.9129167,85.99375 C48.9129167,85.16375 48.24,84.4908333 47.41,84.4908333 C46.58,84.4908333 45.9070833,85.16375 45.9070833,85.99375 C45.9070833,86.82375 46.58,87.4966667 47.41,87.4966667 C48.24,87.4966667 48.9129167,86.82375 48.9129167,85.99375" fill="#FFFFFF" id="Fill-23"></path> <path d="M11.19375,34.6445833 C11.9641667,34.95375 12.8391667,34.5804167 13.14875,33.81 C13.4579167,33.0395833 13.0841667,32.1645833 12.3141667,31.855 C11.54375,31.5458333 10.66875,31.9195833 10.3591667,32.6895833 C10.05,33.46 10.4233333,34.3354167 11.19375,34.6445833" fill="#FFFFFF" id="Fill-24"></path> <path d="M63.3995833,12.5979167 C63.025,13.33875 63.3220833,14.2429167 64.0629167,14.6170833 C64.8041667,14.9916667 65.7079167,14.6945833 66.0825,13.95375 C66.4566667,13.2129167 66.1595833,12.30875 65.41875,11.9345833 C64.6779167,11.56 63.7741667,11.8570833 63.3995833,12.5979167" fill="#FFFFFF" id="Fill-25"></path> <path d="M56.43375,66.6520833 L51.6058333,66.6520833 L51.6058333,51.8720833 L46.0333333,51.8720833 L46.0333333,66.6675 L41.765,66.6675 L41.765,27.0220833 L46.1483333,27.02375 C47.78875,27.02375 50.2770833,27.3870833 52.0375,29.5725 C52.9525,30.6804167 53.5170833,32.1508333 53.7129167,33.6266667 L46.0333333,33.6266667 L46.0333333,35.8095833 L53.78125,35.8095833 C53.7220833,37.21875 53.4325,38.79625 52.0533333,40.4704167 C50.8395833,41.9891667 48.8441667,43.3979167 46.0283333,43.3979167 C46.0104167,43.3979167 45.99625,43.3975 45.97875,43.3975 L45.97875,45.61 C53.505,45.61 56.43375,50.6095833 56.43375,59.7654167 L56.43375,66.6520833 Z M62.4966667,60.59125 C62.4966667,52.46125 59.8733333,46.9941667 53.0666667,44.5895833 C55.2129167,43.7070833 56.5195833,42.3541667 57.37625,41.3270833 C59.0145833,39.44625 59.6829167,37.1391667 59.6829167,34.9541667 C59.6829167,33.1916667 59.1954167,29.6720833 56.1029167,27.24625 C53.97625,25.6070833 52.0966667,24.8166667 47.60625,24.8166667 L45.3325,24.8166667 C45.26125,24.81375 45.1945833,24.8125 45.1066667,24.8125 L35.7283333,24.8125 L35.7283333,69.0895833 L62.4966667,69.0895833 L62.4966667,60.59125 L62.4966667,60.59125 Z" fill="#FFFFFF" id="Fill-26"></path> </g> </g> </g> </g> </g> </g> </svg>