<?xml version="1.0" encoding="UTF-8"?>
<svg id="_И" data-name="И" xmlns="http://www.w3.org/2000/svg" viewBox="0 0 1080 1890">
  <path d="M810,134.21V675.79c0,74.12-60.09,134.21-134.21,134.21h-1.57c-74.12,0-134.21,60.09-134.21,134.21h0c0,74.12-60.09,134.21-134.21,134.21h-1.57c-74.12,0-134.21-60.09-134.21-134.21v-134.21s0-675.79,0-675.79C270,60.09,209.91,0,135.79,0h-1.57C60.09,0,0,60.09,0,134.21V1755.79c0,74.12,60.09,134.21,134.21,134.21h1.57c74.12,0,134.21-60.09,134.21-134.21v-270.35c0-74.12,60.09-134.21,134.21-134.21h1.57c74.12,0,134.21-60.09,134.21-134.21v-.96c0-74.12,60.09-134.21,134.21-134.21h1.57c74.12,0,134.21,60.09,134.21,134.21v539.74c0,74.12,60.09,134.21,134.21,134.21h1.57c74.12,0,134.21-60.09,134.21-134.21V134.21C1080,60.09,1019.91,0,945.79,0h-1.57c-74.12,0-134.21,60.09-134.21,134.21Z"/>
</svg>