<svg width="190" height="315" viewBox="0 0 190 315" fill="none" xmlns="http://www.w3.org/2000/svg">
<path fill-rule="evenodd" clip-rule="evenodd" d="M63.5382 32.8286C63.5382 15.2126 78.1344 0.616211 95.7503 0.616211V0.616211C113.021 0.616211 127.331 14.6171 127.331 31.8878V31.8878C127.331 49.1583 141.332 63.159 158.602 63.159V63.159C175.873 63.159 189.873 77.1595 189.873 94.43V95.6808C189.873 112.951 175.872 126.952 158.602 126.952V126.952C141.331 126.952 127.331 140.952 127.331 158.223V158.223C127.331 175.493 113.015 189.494 95.7443 189.494V189.494C78.8191 189.494 64.7891 203.214 64.7891 220.14V220.14C64.7891 237.065 78.8191 250.785 95.7444 250.785V250.785C113.015 250.785 127.331 265.096 127.331 282.366V282.366C127.331 299.982 112.735 314.578 95.1188 314.578V314.578C77.8483 314.578 63.5381 300.578 63.5381 283.307V283.307C63.5381 266.037 49.5376 252.036 32.2671 252.036V252.036C14.9966 252.036 0.996094 238.036 0.996094 220.765L0.996094 219.514C0.996094 202.244 14.9965 188.243 32.267 188.243V188.243C49.5374 188.243 63.5378 174.242 63.5378 156.972V156.972C63.5378 139.701 77.8543 125.701 95.1248 125.701V125.701C112.05 125.701 126.08 111.98 126.08 95.0549V95.0549C126.08 78.1298 112.05 64.4092 95.1249 64.4092V64.4092C77.8544 64.4092 63.5382 50.099 63.5382 32.8286V32.8286Z" fill="#EDEDED"/>
</svg>
