<svg width="227" height="376" viewBox="0 0 227 376" fill="none" xmlns="http://www.w3.org/2000/svg">
<path fill-rule="evenodd" clip-rule="evenodd" d="M75.6884 38.8616C75.6884 17.7833 93.1536 0.318115 114.232 0.318115V0.318115C134.897 0.318115 152.02 17.0704 152.02 37.7353V37.7353C152.02 58.4003 168.772 75.1525 189.437 75.1525V75.1525C210.102 75.1525 226.854 91.9048 226.854 112.57V114.066C226.854 134.731 210.102 151.484 189.437 151.484V151.484C168.772 151.484 152.02 168.236 152.02 188.901V188.901C152.02 209.566 134.889 226.318 114.224 226.318V226.318C93.9727 226.318 77.1851 242.735 77.1851 262.987V262.987C77.1851 283.239 93.9727 299.656 114.224 299.656V299.656C134.889 299.656 152.02 316.779 152.02 337.444V337.444C152.02 358.522 134.554 375.987 113.476 375.987V375.987C92.8112 375.987 75.6884 359.235 75.6884 338.57V338.57C75.6884 317.905 58.9362 301.153 38.2712 301.153V301.153C17.6063 301.153 0.854004 284.4 0.854004 263.735V262.239C0.854004 241.574 17.6063 224.821 38.2712 224.821V224.821C58.9362 224.821 75.6884 208.069 75.6884 187.404V187.404C75.6884 166.739 92.4407 149.987 113.106 149.987H113.854C134.106 149.987 150.523 133.57 150.523 113.318V113.318C150.523 93.0665 134.106 76.6492 113.854 76.6492H113.106C92.4407 76.6492 75.6884 59.5265 75.6884 38.8616V38.8616Z" fill="#FF4000"/>
</svg>
