<?xml version="1.0" encoding="UTF-8"?>
<svg id="_лю" data-name="лю" xmlns="http://www.w3.org/2000/svg" viewBox="0 0 1350 1890">
  <path d="M810,134h0c0,74.01-59.99,134-134,134h-2c-74.01,0-134-59.99-134-134h0C540,59.99,480.01,0,406,0H134C59.99,0,0,59.99,0,134V1756c0,74.01,59.99,134,134,134h2c74.01,0,134-59.99,134-134V404c0-74.01,59.99-134,134-134h2c74.01,0,134,59.99,134,134V1756c0,74.01,59.99,134,134,134h2c74.01,0,134-59.99,134-134V404c0-74.01,59.99-134,134-134h2c74.01,0,134,59.99,134,134V1756c0,74.01,59.99,134,134,134h2c74.01,0,134-59.99,134-134V134c0-74.01-59.99-134-134-134h-272c-74.01,0-134,59.99-134,134Z"/>
</svg>