<?xml version="1.0" encoding="UTF-8"?>
<svg id="_Н" data-name="Н" xmlns="http://www.w3.org/2000/svg" viewBox="0 0 1080 1890">
  <path d="M810,135V405c0,74.56-60.44,135-135,135H405c-74.56,0-135-60.44-135-135V135c0-74.56-60.44-135-135-135h0C60.44,0,0,60.44,0,135V1755c0,74.56,60.44,135,135,135h0c74.56,0,135-60.44,135-135V945c0-74.56,60.44-135,135-135h270c74.56,0,135,60.44,135,135v810c0,74.56,60.44,135,135,135h0c74.56,0,135-60.44,135-135V135c0-74.56-60.44-135-135-135h0c-74.56,0-135,60.44-135,135Z"/>
</svg>