<svg width="179" height="177" viewBox="0 0 179 177" fill="none" xmlns="http://www.w3.org/2000/svg">
<path d="M83.1421 5.7368C84.4794 -0.825338 93.8563 -0.825362 95.1936 5.73678L102.187 40.0553C103.104 44.553 108.446 46.4975 112.04 43.6412L139.456 21.8471C144.699 17.6798 151.882 23.7072 148.688 29.5936L131.986 60.3785C129.797 64.4131 132.64 69.3369 137.229 69.4585L172.24 70.3865C178.935 70.5639 180.563 79.7984 174.333 82.2548L141.75 95.1015C137.48 96.7851 136.493 102.384 139.929 105.427L166.153 128.643C171.168 133.082 166.479 141.203 160.128 139.08L126.91 127.977C122.557 126.522 118.201 130.176 118.878 134.716L124.044 169.357C125.032 175.981 116.221 179.188 112.72 173.479L94.4102 143.622C92.0106 139.709 86.3251 139.709 83.9255 143.622L65.6161 173.479C62.1151 179.188 53.3037 175.981 54.2915 169.357L59.4573 134.716C60.1343 130.176 55.779 126.522 51.4255 127.977L18.2081 139.08C11.8565 141.203 7.168 133.082 12.1824 128.643L38.4062 105.427C41.8431 102.384 40.8558 96.7852 36.5856 95.1015L4.00293 82.2548C-2.2273 79.7984 -0.599048 70.5639 6.09561 70.3865L41.1071 69.4585C45.6957 69.3369 48.5384 64.4131 46.3495 60.3785L29.6474 29.5937C26.4537 23.7072 33.6368 17.6798 38.8793 21.8471L66.2962 43.6412C69.8894 46.4975 75.232 44.553 76.1486 40.0553L83.1421 5.7368Z" fill="#506583"/>
</svg>
