<svg width="146" height="144" viewBox="0 0 146 144" fill="none" xmlns="http://www.w3.org/2000/svg">
<path d="M67.8697 4.54658C68.9618 -0.812714 76.6199 -0.812733 77.7121 4.54656L83.4237 32.5744C84.1723 36.2477 88.5356 37.8358 91.4701 35.5031L113.861 17.7039C118.143 14.3004 124.009 19.223 121.401 24.0304L107.761 49.1724C105.973 52.4674 108.295 56.4887 112.042 56.588L140.636 57.3459C146.103 57.4908 147.433 65.0326 142.345 67.0387L115.735 77.5306C112.247 78.9056 111.441 83.4784 114.248 85.9633L135.665 104.924C139.76 108.549 135.931 115.181 130.744 113.447L103.615 104.38C100.06 103.192 96.5026 106.176 97.0555 109.884L101.274 138.175C102.081 143.585 94.8848 146.204 92.0256 141.541L77.0723 117.157C75.1125 113.962 70.4692 113.962 68.5095 117.157L53.5562 141.541C50.6969 146.204 43.5007 143.585 44.3074 138.175L48.5263 109.884C49.0792 106.176 45.5222 103.192 41.9668 104.38L14.8381 113.447C9.65078 115.181 5.82172 108.549 9.91693 104.924L31.3339 85.9633C34.1408 83.4784 33.3345 78.9057 29.847 77.5306L3.23681 67.0388C-1.85142 65.0326 -0.521626 57.4908 4.9459 57.3459L33.5398 56.588C37.2872 56.4887 39.6089 52.4675 37.8212 49.1724L24.1806 24.0304C21.5723 19.223 27.4388 14.3004 31.7203 17.7039L54.1116 35.5031C57.0462 37.8358 61.4095 36.2477 62.158 32.5744L67.8697 4.54658Z" fill="#FF4000"/>
</svg>
