<?xml version="1.0" encoding="UTF-8"?>
<svg id="_У" data-name="У" xmlns="http://www.w3.org/2000/svg" viewBox="0 0 1080 1890">
  <path d="M810,135V405c0,74.56-60.44,135-135,135H405c-74.56,0-135-60.44-135-135V135C270,60.44,209.56,0,135,0h0C60.44,0,0,60.44,0,135V675c0,74.56,60.44,135,135,135H675c74.56,0,135,60.44,135,135v540c0,74.56-60.44,135-135,135H135c-74.56,0-135,60.44-135,135H0c0,74.56,60.44,135,135,135H945c74.56,0,135-60.44,135-135V135C1080,60.44,1019.56,0,945,0h0C870.44,0,810,60.44,810,135Z"/>
</svg>